<svg width="21" height="19" viewBox="0 0 21 19" xmlns="http://www.w3.org/2000/svg">
    <path d="M15.404.63c3.745 0 4.896 1.137 4.896 4.84v7.772c0 3.702-1.15 4.839-4.887 4.839L4.638 18.08C1.1 18.038 0 16.87 0 13.25V5.47C0 1.768 1.15.63 4.887.63zm3.528 6.1H1.367v6.521l.005.434.014.397c.1 1.899.632 2.481 2.47 2.604l.385.02c.201.006.416.008.646.008l10.751-.001.421-.01c.135-.004.263-.01.385-.02l.35-.031c1.556-.18 2.026-.807 2.12-2.579l.014-.397c.003-.139.005-.284.005-.434l-.001-6.512zM6.363 12.937a.684.684 0 0 1 .102 1.36l-.102.007H4.47a.684.684 0 0 1-.1-1.36l.1-.007h1.893zm6.154 0a.684.684 0 0 1 .1 1.36l-.1.007H8.73a.684.684 0 0 1-.101-1.36l.101-.007h3.787zm2.887-10.94H4.774L4.661 2l-.421.009a11.25 11.25 0 0 0-.385.02l-.35.032c-1.556.18-2.026.806-2.12 2.578l-.014.398c-.003.138-.005.283-.005.434v-.107h17.564l-.003-.327-.014-.398c-.094-1.772-.565-2.399-2.125-2.578l-.351-.032a12.453 12.453 0 0 0-.593-.026l-.441-.004z" fill="#858EA6" fill-rule="nonzero"/>
</svg>
