<svg width="20" height="20" viewBox="0 0 20 20" xmlns="http://www.w3.org/2000/svg">
    <defs>
        <linearGradient x1="50%" y1="50%" x2="95.422%" y2="111.34%" id="7dpbg1x21a">
            <stop stop-color="#656DF9" offset="0%"/>
            <stop stop-color="#EE6390" offset="100%"/>
        </linearGradient>
    </defs>
    <path d="M35.567 0c4.942 0 7.066 2.124 7.066 7.067v5.5c0 4.942-2.124 7.066-7.066 7.066h-5.5c-4.943 0-7.067-2.124-7.067-7.066v-5.5C23 2.124 25.124 0 30.067 0zm0 1.3h-5.5c-4.225 0-5.767 1.542-5.767 5.767v5.5c0 4.224 1.542 5.766 5.767 5.766h5.5c4.224 0 5.766-1.542 5.766-5.766v-5.5c0-4.225-1.542-5.767-5.766-5.767zm-7.444 11.607a.65.65 0 0 1 .643.554l.007.096v1.897a.65.65 0 0 1-1.293.096l-.007-.096v-1.897a.65.65 0 0 1 .65-.65zm4.694-1.898a.65.65 0 0 1 .643.554l.007.096v3.795a.65.65 0 0 1-1.293.096l-.007-.096V11.66a.65.65 0 0 1 .65-.65zm4.693-1.907a.65.65 0 0 1 .643.554l.007.096v5.702a.65.65 0 0 1-1.293.096l-.007-.096V9.752a.65.65 0 0 1 .65-.65zm0-5.573h.017l.065.005-.082-.005a.653.653 0 0 1 .421.155l.02.018a.654.654 0 0 1 .04.04l-.06-.058a.653.653 0 0 1 .222.4l.003.02a.654.654 0 0 1 .003.051v2.701a.65.65 0 0 1-1.292.096l-.007-.096V5.89a17.966 17.966 0 0 1-8.58 4.95.65.65 0 1 1-.314-1.26 16.664 16.664 0 0 0 8.11-4.752h-1.252a.65.65 0 0 1-.643-.554l-.007-.096a.65.65 0 0 1 .554-.643l.096-.007h2.686z" transform="translate(-23 .107)" fill="url(#7dpbg1x21a)" fill-rule="nonzero"/>
</svg>
