<svg width="18" height="20" viewBox="0 0 18 20" xmlns="http://www.w3.org/2000/svg">
    <path d="M12.667-.003c3.414 0 5.233 1.958 5.233 5.233v9.167c0 3.275-1.819 5.233-5.233 5.233H5.333C1.92 19.63.1 17.672.1 14.397V5.23C.1 1.955 1.919-.003 5.333-.003zm0 1.3H5.333C2.66 1.297 1.4 2.653 1.4 5.23v9.167c0 2.578 1.259 3.933 3.933 3.933h7.334c2.674 0 3.933-1.355 3.933-3.933V5.23c0-2.577-1.259-3.933-3.933-3.933zm0 12.45a.65.65 0 0 1 .096 1.293l-.096.007H5.333a.65.65 0 0 1-.096-1.293l.096-.007h7.334zM6.442 3.055a.65.65 0 0 1 .643.554l.007.096.001.476a2.093 2.093 0 0 1 1.442 1.99.65.65 0 1 1-1.3 0l-.006-.1a.793.793 0 1 0-.787.892 2.092 2.092 0 0 1 .651 4.081v.316a.65.65 0 0 1-1.294.096l-.007-.096v-.316A2.093 2.093 0 0 1 4.35 9.055a.65.65 0 1 1 1.3 0l.006.1a.793.793 0 1 0 .786-.892l-.149-.005a2.093 2.093 0 0 1-.501-4.077v-.476a.65.65 0 0 1 .65-.65zm6.225 6.692a.65.65 0 0 1 .096 1.293l-.096.007h-2.322a.65.65 0 0 1-.096-1.293l.096-.007h2.322zm0-3a.65.65 0 0 1 .096 1.293l-.096.007h-1.782a.65.65 0 0 1-.096-1.293l.096-.007h1.782z" fill="#858EA6" fill-rule="nonzero"/>
</svg>
