<svg width="22" height="21" viewBox="0 0 22 21" xmlns="http://www.w3.org/2000/svg">
    <path d="M2.308 9.364c1.004 0 1.827.775 1.903 1.76l.006.149-.001 1.658a1.83 1.83 0 0 1 2.08.625l1.08 1.628c.45.667.712 1.442.758 2.241l.008.267v2.617a.6.6 0 0 1-1.192.097l-.008-.097V17.69a3.265 3.265 0 0 0-.447-1.654l-.116-.185-1.009-1.523a.63.63 0 0 0-.895-.195.645.645 0 0 0-.26.361l.002.049a.6.6 0 0 1-.021.157.4.4 0 0 0 .015.102l.032.083 1.194 1.962a.6.6 0 0 1-.967.703l-.057-.079-1.22-2.005c-.17-.34-.224-.71-.176-1.062v-3.132a.708.708 0 0 0-1.41-.096l-.007.096v4.507c.003.68.214 1.341.605 1.898l.137.182 1.745 2.198a.6.6 0 0 1-.866.824l-.074-.078-1.741-2.194a4.526 4.526 0 0 1-.998-2.57L.4 15.781v-4.51c0-1.053.854-1.908 1.908-1.908zm17.009 0c1.003 0 1.826.775 1.902 1.76l.006.149v4.512a4.524 4.524 0 0 1-.847 2.618l-.155.203-1.745 2.198a.6.6 0 0 1-1-.655l.06-.091 1.748-2.202c.428-.53.682-1.175.73-1.849l.009-.225v-4.51a.708.708 0 0 0-1.41-.095l-.007.096.002 3.197c.027.291-.015.594-.133.886l-.07.154-1.195 1.962a.6.6 0 0 1-1.068-.537l.044-.087 1.17-1.92a.618.618 0 0 0 .067-.262.06.06 0 0 1-.009-.025l-.008-.097.002-.028a.63.63 0 0 0-1.102-.259l-.067.095-.998 1.504a3.264 3.264 0 0 0-.553 1.619l-.007.217v2.617a.6.6 0 0 1-1.192.097l-.008-.097v-2.616a4.463 4.463 0 0 1 .62-2.28l.143-.224.98-1.478a1.83 1.83 0 0 1 2.183-.78v-1.658c0-1.054.854-1.909 1.908-1.909zM13.813.206c.357 0 .697.152.938.421l3.207 3.642a1.254 1.254 0 0 1-.011 1.833l-6.293 5.648c-.21.192-.468.3-.732.323a.652.652 0 0 1-.219-.001 1.231 1.231 0 0 1-.73-.32L3.71 6.065a1.254 1.254 0 0 1-.392-.911l.006.127a.603.603 0 0 1-.002-.218c.022-.312.157-.601.35-.78L6.875.624c.239-.266.58-.418.936-.418zm2.709 5.561h-5.11v4.587l5.11-4.587zm-6.31 0H5.166l5.046 4.581V5.767zm-2.78-3.958L5.014 4.567h4.081L7.432 1.809zm5.602-.403H8.59l1.907 3.161h.63l1.907-3.161zm1.159.402-1.664 2.759h4.095l-2.431-2.759z" fill="#858EA6" fill-rule="nonzero"/>
</svg>
