<svg width="24" height="17" viewBox="0 0 24 17" xmlns="http://www.w3.org/2000/svg">
    <path d="M4.558.753 2.797 2.074l-.076.062-.017.016-.031.037c-.466.55-.401 1.361.137 1.823l.084.061 6.013 3.723-2.444 1.705-2.49-1.484-.117-.055a1.168 1.168 0 0 0-1.13.194L.336 10.27l-.085.093a1.168 1.168 0 0 0 .186 1.634l5.473 3.846a1.58 1.58 0 0 0 1.74.05l14.838-9.215a3.3 3.3 0 0 0 .95-4.614A3.253 3.253 0 0 0 21.468.73l-.168-.034a3.104 3.104 0 0 0-2.271.493l-4.105 2.798L5.77.58a1.288 1.288 0 0 0-1.213.173zM3.743 3.03 5.33 1.839l9.45 3.518c.203.075.43.048.609-.074l4.388-2.992a1.771 1.771 0 0 1 1.394-.26c.476.106.89.385 1.164.783a1.966 1.966 0 0 1-.564 2.739L6.949 14.76l-.053.024a.246.246 0 0 1-.218-.032l-5.239-3.681 2.037-1.8 2.676 1.594a.667.667 0 0 0 .722-.026l3.628-2.53.065-.052a.667.667 0 0 0-.095-1.062L3.743 3.031z" fill="#08C58A" fill-rule="nonzero"/>
</svg>
