<svg width="29" height="20" viewBox="0 0 29 20" xmlns="http://www.w3.org/2000/svg">
    <path d="M19.528 1.207c.455.31.807.745 1.02 1.265l.065.176 1.257 4.05h3.386a2.8 2.8 0 0 1 1.855.703l.125.117a2.8 2.8 0 0 1 .814 1.809l.006.17v3.983a2.8 2.8 0 0 1-2.63 2.794l-.17.005h-.274a3.799 3.799 0 0 1-7.42 0h-6.516a3.799 3.799 0 0 1-7.421 0h-.27A2.8 2.8 0 0 1 .561 13.65l-.005-.17V9.498a2.8 2.8 0 0 1 2.629-2.795l.17-.005h2.402L7.108 2.63a2.8 2.8 0 0 1 .932-1.315l.148-.108A2.79 2.79 0 0 1 9.675.722l.19.003 7.942.001a2.8 2.8 0 0 1 1.72.481zm1.744 11.835a2.426 2.426 0 1 0 0 4.853 2.426 2.426 0 0 0 0-4.853zm-13.937 0a2.426 2.426 0 1 0 0 4.853 2.426 2.426 0 0 0 0-4.853zm10.64-10.7H9.824a1.182 1.182 0 0 0-1.134.682l-.048.119L7.11 7.762c-.1.3-.364.512-.673.548l-.094.006H3.355A1.182 1.182 0 0 0 2.18 9.38l-.006.117v3.982a1.182 1.182 0 0 0 1.065 1.176l.117.006h.269a3.799 3.799 0 0 1 7.423 0h6.513a3.799 3.799 0 0 1 7.423 0h.273a1.182 1.182 0 0 0 1.176-1.066l.006-.116V9.498a1.182 1.182 0 0 0-1.065-1.177l-.117-.005h-3.982a.809.809 0 0 1-.739-.48l-.034-.09-1.427-4.6a1.182 1.182 0 0 0-1.099-.804z" fill="#FB587B" fill-rule="nonzero"/>
</svg>
